<?xml version="1.0" encoding="UTF-8" standalone="no"?>
<!DOCTYPE svg PUBLIC "-//W3C//DTD SVG 1.1//EN"
 "http://www.w3.org/Graphics/SVG/1.1/DTD/svg11.dtd">
<!-- Generated by graphviz version 8.1.0 (20230707.2238)
 -->
<!-- Title: dock&#45;parallel Pages: 1 -->
<svg width="653pt" height="480pt"
 viewBox="0.00 0.00 653.00 479.75" xmlns="http://www.w3.org/2000/svg" xmlns:xlink="http://www.w3.org/1999/xlink">
<g id="graph0" class="graph" transform="scale(1 1) rotate(0) translate(4 475.75)">
<title>dock&#45;parallel</title>
<polygon fill="none" stroke="none" points="-4,4 -4,-475.75 649,-475.75 649,4 -4,4"/>
<g id="clust1" class="cluster">
<title>cluster&#45;autodockgpuparallel</title>
<path fill="#666666" fill-opacity="0.133333" stroke="#830051" stroke-width="2" d="M20,-75.25C20,-75.25 625,-75.25 625,-75.25 631,-75.25 637,-81.25 637,-87.25 637,-87.25 637,-303.25 637,-303.25 637,-309.25 631,-315.25 625,-315.25 625,-315.25 20,-315.25 20,-315.25 14,-315.25 8,-309.25 8,-303.25 8,-303.25 8,-87.25 8,-87.25 8,-81.25 14,-75.25 20,-75.25"/>
<text text-anchor="middle" x="322.5" y="-300.8" font-family="Consolas" font-size="11.00">autodockgpuparallel</text>
</g>
<!-- loaddata -->
<g id="node1" class="node">
<title>loaddata</title>
<path fill="#666666" fill-opacity="0.133333" stroke="#830051" stroke-width="2" d="M248,-471.75C248,-471.75 202,-471.75 202,-471.75 196,-471.75 190,-465.75 190,-459.75 190,-459.75 190,-447.75 190,-447.75 190,-441.75 196,-435.75 202,-435.75 202,-435.75 248,-435.75 248,-435.75 254,-435.75 260,-441.75 260,-447.75 260,-447.75 260,-459.75 260,-459.75 260,-465.75 254,-471.75 248,-471.75"/>
<text text-anchor="middle" x="225" y="-450.05" font-family="Consolas" font-size="11.00">loaddata</text>
</g>
<!-- gypsum -->
<g id="node2" class="node">
<title>gypsum</title>
<path fill="#666666" fill-opacity="0.133333" stroke="#830051" stroke-width="2" d="M241.25,-388.5C241.25,-388.5 208.75,-388.5 208.75,-388.5 202.75,-388.5 196.75,-382.5 196.75,-376.5 196.75,-376.5 196.75,-364.5 196.75,-364.5 196.75,-358.5 202.75,-352.5 208.75,-352.5 208.75,-352.5 241.25,-352.5 241.25,-352.5 247.25,-352.5 253.25,-358.5 253.25,-364.5 253.25,-364.5 253.25,-376.5 253.25,-376.5 253.25,-382.5 247.25,-388.5 241.25,-388.5"/>
<text text-anchor="middle" x="225" y="-366.8" font-family="Consolas" font-size="11.00">gypsum</text>
</g>
<!-- loaddata&#45;&gt;gypsum -->
<g id="edge7" class="edge">
<title>loaddata&#45;&gt;gypsum</title>
<path fill="none" stroke="#3f4444" stroke-width="2" d="M225,-435.12C225,-425.5 225,-413.31 225,-402.18"/>
<polygon fill="#3f4444" stroke="#3f4444" stroke-width="2" points="228.5,-402.38 225,-392.38 221.5,-402.38 228.5,-402.38"/>
<text text-anchor="middle" x="248.62" y="-409.2" font-family="Consolas" font-size="9.00">list[str]</text>
</g>
<!-- autodockgpuparallel&#45;sow&#45;inp -->
<g id="node3" class="node">
<title>autodockgpuparallel&#45;sow&#45;inp</title>
<path fill="#666666" fill-opacity="0.133333" stroke="#003865" stroke-width="2" d="M244.62,-285.75C244.62,-285.75 205.38,-285.75 205.38,-285.75 199.38,-285.75 193.38,-279.75 193.38,-273.75 193.38,-273.75 193.38,-261.75 193.38,-261.75 193.38,-255.75 199.38,-249.75 205.38,-249.75 205.38,-249.75 244.62,-249.75 244.62,-249.75 250.62,-249.75 256.62,-255.75 256.62,-261.75 256.62,-261.75 256.62,-273.75 256.62,-273.75 256.62,-279.75 250.62,-285.75 244.62,-285.75"/>
<text text-anchor="middle" x="225" y="-264.05" font-family="Consolas" font-size="11.00">sow&#45;inp</text>
</g>
<!-- gypsum&#45;&gt;autodockgpuparallel&#45;sow&#45;inp -->
<g id="edge8" class="edge">
<title>gypsum&#45;&gt;autodockgpuparallel&#45;sow&#45;inp</title>
<path fill="none" stroke="#3f4444" stroke-width="2" d="M225,-351.95C225,-337.45 225,-316.52 225,-299.28"/>
<polygon fill="#3f4444" stroke="#3f4444" stroke-width="2" points="228.5,-299.44 225,-289.44 221.5,-299.44 228.5,-299.44"/>
<text text-anchor="middle" x="282.75" y="-325.95" font-family="Consolas" font-size="9.00">list[IsomerCollection]</text>
</g>
<!-- autodockgpuparallel&#45;AutoDockGPU&#45;0 -->
<g id="node4" class="node">
<title>autodockgpuparallel&#45;AutoDockGPU&#45;0</title>
<path fill="#666666" fill-opacity="0.133333" stroke="#003865" stroke-width="2" d="M212.88,-202.5C212.88,-202.5 133.12,-202.5 133.12,-202.5 127.12,-202.5 121.12,-196.5 121.12,-190.5 121.12,-190.5 121.12,-178.5 121.12,-178.5 121.12,-172.5 127.12,-166.5 133.12,-166.5 133.12,-166.5 212.88,-166.5 212.88,-166.5 218.88,-166.5 224.88,-172.5 224.88,-178.5 224.88,-178.5 224.88,-190.5 224.88,-190.5 224.88,-196.5 218.88,-202.5 212.88,-202.5"/>
<text text-anchor="middle" x="173" y="-180.8" font-family="Consolas" font-size="11.00">AutoDockGPU&#45;0</text>
</g>
<!-- autodockgpuparallel&#45;sow&#45;inp&#45;&gt;autodockgpuparallel&#45;AutoDockGPU&#45;0 -->
<g id="edge1" class="edge">
<title>autodockgpuparallel&#45;sow&#45;inp&#45;&gt;autodockgpuparallel&#45;AutoDockGPU&#45;0</title>
<path fill="none" stroke="#3f4444" stroke-width="2" d="M213.72,-249.12C207.15,-238.86 198.72,-225.69 191.24,-213.99"/>
<polygon fill="#3f4444" stroke="#3f4444" stroke-width="2" points="193.78,-211.91 185.44,-205.38 187.88,-215.69 193.78,-211.91"/>
<text text-anchor="middle" x="209.88" y="-223.2" font-family="Consolas" font-size="9.00">Any</text>
</g>
<!-- autodockgpuparallel&#45;AutoDockGPU&#45;1 -->
<g id="node5" class="node">
<title>autodockgpuparallel&#45;AutoDockGPU&#45;1</title>
<path fill="#666666" fill-opacity="0.133333" stroke="#003865" stroke-width="2" d="M382.88,-202.5C382.88,-202.5 303.12,-202.5 303.12,-202.5 297.12,-202.5 291.12,-196.5 291.12,-190.5 291.12,-190.5 291.12,-178.5 291.12,-178.5 291.12,-172.5 297.12,-166.5 303.12,-166.5 303.12,-166.5 382.88,-166.5 382.88,-166.5 388.88,-166.5 394.88,-172.5 394.88,-178.5 394.88,-178.5 394.88,-190.5 394.88,-190.5 394.88,-196.5 388.88,-202.5 382.88,-202.5"/>
<text text-anchor="middle" x="343" y="-180.8" font-family="Consolas" font-size="11.00">AutoDockGPU&#45;1</text>
</g>
<!-- autodockgpuparallel&#45;sow&#45;inp&#45;&gt;autodockgpuparallel&#45;AutoDockGPU&#45;1 -->
<g id="edge4" class="edge">
<title>autodockgpuparallel&#45;sow&#45;inp&#45;&gt;autodockgpuparallel&#45;AutoDockGPU&#45;1</title>
<path fill="none" stroke="#3f4444" stroke-width="2" d="M250.9,-248.92C267.27,-237.65 288.66,-222.92 306.71,-210.49"/>
<polygon fill="#3f4444" stroke="#3f4444" stroke-width="2" points="308.91,-212.84 315.16,-204.29 304.94,-207.08 308.91,-212.84"/>
<text text-anchor="middle" x="298.88" y="-223.2" font-family="Consolas" font-size="9.00">Any</text>
</g>
<!-- autodockgpuparallel&#45;reap&#45;out -->
<g id="node6" class="node">
<title>autodockgpuparallel&#45;reap&#45;out</title>
<path fill="#666666" fill-opacity="0.133333" stroke="#003865" stroke-width="2" d="M222,-119.25C222,-119.25 176,-119.25 176,-119.25 170,-119.25 164,-113.25 164,-107.25 164,-107.25 164,-95.25 164,-95.25 164,-89.25 170,-83.25 176,-83.25 176,-83.25 222,-83.25 222,-83.25 228,-83.25 234,-89.25 234,-95.25 234,-95.25 234,-107.25 234,-107.25 234,-113.25 228,-119.25 222,-119.25"/>
<text text-anchor="middle" x="199" y="-97.55" font-family="Consolas" font-size="11.00">reap&#45;out</text>
</g>
<!-- autodockgpuparallel&#45;AutoDockGPU&#45;0&#45;&gt;autodockgpuparallel&#45;reap&#45;out -->
<g id="edge2" class="edge">
<title>autodockgpuparallel&#45;AutoDockGPU&#45;0&#45;&gt;autodockgpuparallel&#45;reap&#45;out</title>
<path fill="none" stroke="#3f4444" stroke-width="2" d="M120.17,-182.18C71.34,-179.01 9.93,-168.88 35.5,-137.25 49.77,-119.61 107.58,-110.46 150.43,-106.01"/>
<polygon fill="#3f4444" stroke="#3f4444" stroke-width="2" points="150.57,-109.22 160.19,-104.78 149.9,-102.26 150.57,-109.22"/>
<text text-anchor="middle" x="93.75" y="-139.95" font-family="Consolas" font-size="9.00">list[IsomerCollection]</text>
</g>
<!-- autodockgpuparallel&#45;reap&#45;out_scores -->
<g id="node7" class="node">
<title>autodockgpuparallel&#45;reap&#45;out_scores</title>
<path fill="#666666" fill-opacity="0.133333" stroke="#003865" stroke-width="2" d="M362.62,-119.25C362.62,-119.25 269.38,-119.25 269.38,-119.25 263.38,-119.25 257.38,-113.25 257.38,-107.25 257.38,-107.25 257.38,-95.25 257.38,-95.25 257.38,-89.25 263.38,-83.25 269.38,-83.25 269.38,-83.25 362.62,-83.25 362.62,-83.25 368.62,-83.25 374.62,-89.25 374.62,-95.25 374.62,-95.25 374.62,-107.25 374.62,-107.25 374.62,-113.25 368.62,-119.25 362.62,-119.25"/>
<text text-anchor="middle" x="316" y="-97.55" font-family="Consolas" font-size="11.00">reap&#45;out_scores</text>
</g>
<!-- autodockgpuparallel&#45;AutoDockGPU&#45;0&#45;&gt;autodockgpuparallel&#45;reap&#45;out_scores -->
<g id="edge3" class="edge">
<title>autodockgpuparallel&#45;AutoDockGPU&#45;0&#45;&gt;autodockgpuparallel&#45;reap&#45;out_scores</title>
<path fill="none" stroke="#3f4444" stroke-width="2" d="M168.62,-165.94C167.33,-156.48 167.67,-145.15 174,-137.25 175.25,-135.69 209.74,-127.17 244.41,-118.93"/>
<polygon fill="#3f4444" stroke="#3f4444" stroke-width="2" points="245.7,-121.75 254.63,-116.04 244.09,-114.93 245.7,-121.75"/>
<text text-anchor="middle" x="247.5" y="-139.95" font-family="Consolas" font-size="9.00">ndarray[Any, dtype[float32]]</text>
<text text-anchor="middle" x="152.87" y="-157.39" font-family="Consolas" font-size="9.00">scores</text>
</g>
<!-- autodockgpuparallel&#45;AutoDockGPU&#45;1&#45;&gt;autodockgpuparallel&#45;reap&#45;out -->
<g id="edge5" class="edge">
<title>autodockgpuparallel&#45;AutoDockGPU&#45;1&#45;&gt;autodockgpuparallel&#45;reap&#45;out</title>
<path fill="none" stroke="#3f4444" stroke-width="2" d="M338.61,-165.77C335.32,-156.01 329.82,-144.44 321,-137.25 295.11,-116.13 280.04,-128.74 248,-119.25 247.6,-119.13 247.19,-119.01 246.78,-118.89"/>
<polygon fill="#3f4444" stroke="#3f4444" stroke-width="2" points="247.33,-114.76 236.74,-115.07 245.21,-121.43 247.33,-114.76"/>
<text text-anchor="middle" x="387.75" y="-139.95" font-family="Consolas" font-size="9.00">list[IsomerCollection]</text>
</g>
<!-- autodockgpuparallel&#45;AutoDockGPU&#45;1&#45;&gt;autodockgpuparallel&#45;reap&#45;out_scores -->
<g id="edge6" class="edge">
<title>autodockgpuparallel&#45;AutoDockGPU&#45;1&#45;&gt;autodockgpuparallel&#45;reap&#45;out_scores</title>
<path fill="none" stroke="#3f4444" stroke-width="2" d="M395.79,-179.68C435.72,-174.69 480.45,-163.27 460,-137.25 450.6,-125.29 419.18,-116.92 388.07,-111.36"/>
<polygon fill="#3f4444" stroke="#3f4444" stroke-width="2" points="387.74,-107.42 377.29,-109.23 386.58,-114.33 387.74,-107.42"/>
<text text-anchor="middle" x="537.5" y="-139.95" font-family="Consolas" font-size="9.00">ndarray[Any, dtype[float32]]</text>
<text text-anchor="middle" x="411.54" y="-182.38" font-family="Consolas" font-size="9.00">scores</text>
</g>
<!-- void -->
<g id="node9" class="node">
<title>void</title>
<path fill="#666666" fill-opacity="0.133333" stroke="#830051" stroke-width="2" d="M214,-36C214,-36 184,-36 184,-36 178,-36 172,-30 172,-24 172,-24 172,-12 172,-12 172,-6 178,0 184,0 184,0 214,0 214,0 220,0 226,-6 226,-12 226,-12 226,-24 226,-24 226,-30 220,-36 214,-36"/>
<text text-anchor="middle" x="199" y="-14.3" font-family="Consolas" font-size="11.00">void</text>
</g>
<!-- autodockgpuparallel&#45;reap&#45;out&#45;&gt;void -->
<g id="edge9" class="edge">
<title>autodockgpuparallel&#45;reap&#45;out&#45;&gt;void</title>
<path fill="none" stroke="#3f4444" stroke-width="2" d="M199,-82.62C199,-73 199,-60.81 199,-49.68"/>
<polygon fill="#3f4444" stroke="#3f4444" stroke-width="2" points="202.5,-49.88 199,-39.88 195.5,-49.88 202.5,-49.88"/>
<text text-anchor="middle" x="206.88" y="-56.7" font-family="Consolas" font-size="9.00">Any</text>
</g>
<!-- logresult -->
<g id="node8" class="node">
<title>logresult</title>
<path fill="#666666" fill-opacity="0.133333" stroke="#830051" stroke-width="2" d="M342.38,-36C342.38,-36 289.62,-36 289.62,-36 283.62,-36 277.62,-30 277.62,-24 277.62,-24 277.62,-12 277.62,-12 277.62,-6 283.62,0 289.62,0 289.62,0 342.38,0 342.38,0 348.38,0 354.38,-6 354.38,-12 354.38,-12 354.38,-24 354.38,-24 354.38,-30 348.38,-36 342.38,-36"/>
<text text-anchor="middle" x="316" y="-14.3" font-family="Consolas" font-size="11.00">logresult</text>
</g>
<!-- autodockgpuparallel&#45;reap&#45;out_scores&#45;&gt;logresult -->
<g id="edge10" class="edge">
<title>autodockgpuparallel&#45;reap&#45;out_scores&#45;&gt;logresult</title>
<path fill="none" stroke="#3f4444" stroke-width="2" d="M316,-82.62C316,-73 316,-60.81 316,-49.68"/>
<polygon fill="#3f4444" stroke="#3f4444" stroke-width="2" points="319.5,-49.88 316,-39.88 312.5,-49.88 319.5,-49.88"/>
<text text-anchor="middle" x="323.88" y="-56.7" font-family="Consolas" font-size="9.00">Any</text>
</g>
</g>
</svg>
