<?xml version="1.0" encoding="UTF-8" standalone="no"?>
<!DOCTYPE svg PUBLIC "-//W3C//DTD SVG 1.1//EN"
 "http://www.w3.org/Graphics/SVG/1.1/DTD/svg11.dtd">
<!-- Generated by graphviz version 8.1.0 (20230707.2238)
 -->
<!-- Title: dock Pages: 1 -->
<svg width="307pt" height="294pt"
 viewBox="0.00 0.00 306.50 293.75" xmlns="http://www.w3.org/2000/svg" xmlns:xlink="http://www.w3.org/1999/xlink">
<g id="graph0" class="graph" transform="scale(1 1) rotate(0) translate(4 289.75)">
<title>dock</title>
<polygon fill="none" stroke="none" points="-4,4 -4,-289.75 302.5,-289.75 302.5,4 -4,4"/>
<!-- loaddata -->
<g id="node1" class="node">
<title>loaddata</title>
<path fill="#666666" fill-opacity="0.133333" stroke="#830051" stroke-width="2" d="M135,-285.75C135,-285.75 89,-285.75 89,-285.75 83,-285.75 77,-279.75 77,-273.75 77,-273.75 77,-261.75 77,-261.75 77,-255.75 83,-249.75 89,-249.75 89,-249.75 135,-249.75 135,-249.75 141,-249.75 147,-255.75 147,-261.75 147,-261.75 147,-273.75 147,-273.75 147,-279.75 141,-285.75 135,-285.75"/>
<text text-anchor="middle" x="112" y="-264.05" font-family="Consolas" font-size="11.00">loaddata</text>
</g>
<!-- gypsum -->
<g id="node2" class="node">
<title>gypsum</title>
<path fill="#666666" fill-opacity="0.133333" stroke="#830051" stroke-width="2" d="M128.25,-202.5C128.25,-202.5 95.75,-202.5 95.75,-202.5 89.75,-202.5 83.75,-196.5 83.75,-190.5 83.75,-190.5 83.75,-178.5 83.75,-178.5 83.75,-172.5 89.75,-166.5 95.75,-166.5 95.75,-166.5 128.25,-166.5 128.25,-166.5 134.25,-166.5 140.25,-172.5 140.25,-178.5 140.25,-178.5 140.25,-190.5 140.25,-190.5 140.25,-196.5 134.25,-202.5 128.25,-202.5"/>
<text text-anchor="middle" x="112" y="-180.8" font-family="Consolas" font-size="11.00">gypsum</text>
</g>
<!-- loaddata&#45;&gt;gypsum -->
<g id="edge1" class="edge">
<title>loaddata&#45;&gt;gypsum</title>
<path fill="none" stroke="#3f4444" stroke-width="2" d="M112,-249.12C112,-239.5 112,-227.31 112,-216.18"/>
<polygon fill="#3f4444" stroke="#3f4444" stroke-width="2" points="115.5,-216.38 112,-206.38 108.5,-216.38 115.5,-216.38"/>
<text text-anchor="middle" x="135.62" y="-223.2" font-family="Consolas" font-size="9.00">list[str]</text>
</g>
<!-- autodockgpu -->
<g id="node3" class="node">
<title>autodockgpu</title>
<path fill="#666666" fill-opacity="0.133333" stroke="#830051" stroke-width="2" d="M145.12,-119.25C145.12,-119.25 78.88,-119.25 78.88,-119.25 72.88,-119.25 66.88,-113.25 66.88,-107.25 66.88,-107.25 66.88,-95.25 66.88,-95.25 66.88,-89.25 72.88,-83.25 78.88,-83.25 78.88,-83.25 145.12,-83.25 145.12,-83.25 151.12,-83.25 157.12,-89.25 157.12,-95.25 157.12,-95.25 157.12,-107.25 157.12,-107.25 157.12,-113.25 151.12,-119.25 145.12,-119.25"/>
<text text-anchor="middle" x="112" y="-97.55" font-family="Consolas" font-size="11.00">autodockgpu</text>
</g>
<!-- gypsum&#45;&gt;autodockgpu -->
<g id="edge2" class="edge">
<title>gypsum&#45;&gt;autodockgpu</title>
<path fill="none" stroke="#3f4444" stroke-width="2" d="M112,-165.87C112,-156.25 112,-144.06 112,-132.93"/>
<polygon fill="#3f4444" stroke="#3f4444" stroke-width="2" points="115.5,-133.13 112,-123.13 108.5,-133.13 115.5,-133.13"/>
<text text-anchor="middle" x="169.75" y="-139.95" font-family="Consolas" font-size="9.00">list[IsomerCollection]</text>
</g>
<!-- void -->
<g id="node4" class="node">
<title>void</title>
<path fill="#666666" fill-opacity="0.133333" stroke="#830051" stroke-width="2" d="M42,-36C42,-36 12,-36 12,-36 6,-36 0,-30 0,-24 0,-24 0,-12 0,-12 0,-6 6,0 12,0 12,0 42,0 42,0 48,0 54,-6 54,-12 54,-12 54,-24 54,-24 54,-30 48,-36 42,-36"/>
<text text-anchor="middle" x="27" y="-14.3" font-family="Consolas" font-size="11.00">void</text>
</g>
<!-- autodockgpu&#45;&gt;void -->
<g id="edge4" class="edge">
<title>autodockgpu&#45;&gt;void</title>
<path fill="none" stroke="#3f4444" stroke-width="2" d="M65.92,-92.85C49.92,-87.83 33.6,-79.4 24,-65.25 20.85,-60.61 19.64,-55.06 19.54,-49.45"/>
<polygon fill="#3f4444" stroke="#3f4444" stroke-width="2" points="23.34,-49.95 20.96,-39.62 16.38,-49.18 23.34,-49.95"/>
<text text-anchor="middle" x="97.5" y="-56.7" font-family="Consolas" font-size="9.00">ndarray[Any, dtype[float32]]</text>
<text text-anchor="middle" x="50.17" y="-95.55" font-family="Consolas" font-size="9.00">scores</text>
</g>
<!-- return -->
<g id="node5" class="node">
<title>return</title>
<path fill="#666666" fill-opacity="0.133333" stroke="#830051" stroke-width="2" d="M213.25,-36C213.25,-36 180.75,-36 180.75,-36 174.75,-36 168.75,-30 168.75,-24 168.75,-24 168.75,-12 168.75,-12 168.75,-6 174.75,0 180.75,0 180.75,0 213.25,0 213.25,0 219.25,0 225.25,-6 225.25,-12 225.25,-12 225.25,-24 225.25,-24 225.25,-30 219.25,-36 213.25,-36"/>
<text text-anchor="middle" x="197" y="-14.3" font-family="Consolas" font-size="11.00">return</text>
</g>
<!-- autodockgpu&#45;&gt;return -->
<g id="edge3" class="edge">
<title>autodockgpu&#45;&gt;return</title>
<path fill="none" stroke="#3f4444" stroke-width="2" d="M152.97,-82.37C160.94,-77.62 168.75,-71.91 175,-65.25 179.6,-60.35 183.4,-54.32 186.47,-48.24"/>
<polygon fill="#3f4444" stroke="#3f4444" stroke-width="2" points="189.68,-49.36 190.5,-38.8 183.27,-46.54 189.68,-49.36"/>
<text text-anchor="middle" x="240.75" y="-56.7" font-family="Consolas" font-size="9.00">list[IsomerCollection]</text>
</g>
</g>
</svg>
