<?xml version="1.0" encoding="UTF-8" standalone="no"?>
<!DOCTYPE svg PUBLIC "-//W3C//DTD SVG 1.1//EN"
 "http://www.w3.org/Graphics/SVG/1.1/DTD/svg11.dtd">
<!-- Generated by graphviz version 8.1.0 (20230707.2238)
 -->
<!-- Title: dock&#45;ht Pages: 1 -->
<svg width="318pt" height="460pt"
 viewBox="0.00 0.00 317.88 460.25" xmlns="http://www.w3.org/2000/svg" xmlns:xlink="http://www.w3.org/1999/xlink">
<g id="graph0" class="graph" transform="scale(1 1) rotate(0) translate(4 456.25)">
<title>dock&#45;ht</title>
<polygon fill="none" stroke="none" points="-4,4 -4,-456.25 313.88,-456.25 313.88,4 -4,4"/>
<!-- loaddata -->
<g id="node1" class="node">
<title>loaddata</title>
<path fill="#666666" fill-opacity="0.133333" stroke="#830051" stroke-width="2" d="M146.38,-452.25C146.38,-452.25 100.38,-452.25 100.38,-452.25 94.38,-452.25 88.38,-446.25 88.38,-440.25 88.38,-440.25 88.38,-428.25 88.38,-428.25 88.38,-422.25 94.38,-416.25 100.38,-416.25 100.38,-416.25 146.38,-416.25 146.38,-416.25 152.38,-416.25 158.38,-422.25 158.38,-428.25 158.38,-428.25 158.38,-440.25 158.38,-440.25 158.38,-446.25 152.38,-452.25 146.38,-452.25"/>
<text text-anchor="middle" x="123.38" y="-430.55" font-family="Consolas" font-size="11.00">loaddata</text>
</g>
<!-- batch -->
<g id="node2" class="node">
<title>batch</title>
<path fill="#666666" fill-opacity="0.133333" stroke="#830051" stroke-width="2" d="M138.38,-369C138.38,-369 108.38,-369 108.38,-369 102.38,-369 96.38,-363 96.38,-357 96.38,-357 96.38,-345 96.38,-345 96.38,-339 102.38,-333 108.38,-333 108.38,-333 138.38,-333 138.38,-333 144.38,-333 150.38,-339 150.38,-345 150.38,-345 150.38,-357 150.38,-357 150.38,-363 144.38,-369 138.38,-369"/>
<text text-anchor="middle" x="123.38" y="-347.3" font-family="Consolas" font-size="11.00">batch</text>
</g>
<!-- loaddata&#45;&gt;batch -->
<g id="edge1" class="edge">
<title>loaddata&#45;&gt;batch</title>
<path fill="none" stroke="#3f4444" stroke-width="2" d="M123.38,-415.62C123.38,-406 123.38,-393.81 123.38,-382.68"/>
<polygon fill="#3f4444" stroke="#3f4444" stroke-width="2" points="126.88,-382.88 123.38,-372.88 119.88,-382.88 126.88,-382.88"/>
<text text-anchor="middle" x="147" y="-389.7" font-family="Consolas" font-size="9.00">list[str]</text>
</g>
<!-- gypsum -->
<g id="node3" class="node">
<title>gypsum</title>
<path fill="#666666" fill-opacity="0.133333" stroke="#830051" stroke-width="2" d="M139.62,-285.75C139.62,-285.75 107.12,-285.75 107.12,-285.75 101.12,-285.75 95.12,-279.75 95.12,-273.75 95.12,-273.75 95.12,-261.75 95.12,-261.75 95.12,-255.75 101.12,-249.75 107.12,-249.75 107.12,-249.75 139.62,-249.75 139.62,-249.75 145.62,-249.75 151.62,-255.75 151.62,-261.75 151.62,-261.75 151.62,-273.75 151.62,-273.75 151.62,-279.75 145.62,-285.75 139.62,-285.75"/>
<text text-anchor="middle" x="123.38" y="-264.05" font-family="Consolas" font-size="11.00">gypsum</text>
</g>
<!-- batch&#45;&gt;gypsum -->
<g id="edge2" class="edge">
<title>batch&#45;&gt;gypsum</title>
<path fill="none" stroke="#3f4444" stroke-width="2" d="M123.38,-332.37C123.38,-322.75 123.38,-310.56 123.38,-299.43"/>
<polygon fill="#3f4444" stroke="#3f4444" stroke-width="2" points="126.88,-299.63 123.38,-289.63 119.88,-299.63 126.88,-299.63"/>
<text text-anchor="middle" x="141.75" y="-306.45" font-family="Consolas" font-size="9.00">list[T]</text>
</g>
<!-- autodockgpu -->
<g id="node4" class="node">
<title>autodockgpu</title>
<path fill="#666666" fill-opacity="0.133333" stroke="#830051" stroke-width="2" d="M156.5,-202.5C156.5,-202.5 90.25,-202.5 90.25,-202.5 84.25,-202.5 78.25,-196.5 78.25,-190.5 78.25,-190.5 78.25,-178.5 78.25,-178.5 78.25,-172.5 84.25,-166.5 90.25,-166.5 90.25,-166.5 156.5,-166.5 156.5,-166.5 162.5,-166.5 168.5,-172.5 168.5,-178.5 168.5,-178.5 168.5,-190.5 168.5,-190.5 168.5,-196.5 162.5,-202.5 156.5,-202.5"/>
<text text-anchor="middle" x="123.38" y="-180.8" font-family="Consolas" font-size="11.00">autodockgpu</text>
</g>
<!-- gypsum&#45;&gt;autodockgpu -->
<g id="edge3" class="edge">
<title>gypsum&#45;&gt;autodockgpu</title>
<path fill="none" stroke="#3f4444" stroke-width="2" d="M123.38,-249.12C123.38,-239.5 123.38,-227.31 123.38,-216.18"/>
<polygon fill="#3f4444" stroke="#3f4444" stroke-width="2" points="126.88,-216.38 123.38,-206.38 119.88,-216.38 126.88,-216.38"/>
<text text-anchor="middle" x="181.12" y="-223.2" font-family="Consolas" font-size="9.00">list[IsomerCollection]</text>
</g>
<!-- combine -->
<g id="node5" class="node">
<title>combine</title>
<path fill="#666666" fill-opacity="0.133333" stroke="#830051" stroke-width="2" d="M58,-119.25C58,-119.25 18.75,-119.25 18.75,-119.25 12.75,-119.25 6.75,-113.25 6.75,-107.25 6.75,-107.25 6.75,-95.25 6.75,-95.25 6.75,-89.25 12.75,-83.25 18.75,-83.25 18.75,-83.25 58,-83.25 58,-83.25 64,-83.25 70,-89.25 70,-95.25 70,-95.25 70,-107.25 70,-107.25 70,-113.25 64,-119.25 58,-119.25"/>
<text text-anchor="middle" x="38.38" y="-97.55" font-family="Consolas" font-size="11.00">combine</text>
</g>
<!-- autodockgpu&#45;&gt;combine -->
<g id="edge5" class="edge">
<title>autodockgpu&#45;&gt;combine</title>
<path fill="none" stroke="#3f4444" stroke-width="2" d="M77.3,-176.1C61.3,-171.08 44.98,-162.65 35.38,-148.5 32.22,-143.86 31.01,-138.31 30.92,-132.7"/>
<polygon fill="#3f4444" stroke="#3f4444" stroke-width="2" points="34.72,-133.2 32.34,-122.87 27.76,-132.43 34.72,-133.2"/>
<text text-anchor="middle" x="108.88" y="-139.95" font-family="Consolas" font-size="9.00">ndarray[Any, dtype[float32]]</text>
<text text-anchor="middle" x="61.55" y="-178.8" font-family="Consolas" font-size="9.00">scores</text>
</g>
<!-- void -->
<g id="node7" class="node">
<title>void</title>
<path fill="#666666" fill-opacity="0.133333" stroke="#830051" stroke-width="2" d="M223.38,-119.25C223.38,-119.25 193.38,-119.25 193.38,-119.25 187.38,-119.25 181.38,-113.25 181.38,-107.25 181.38,-107.25 181.38,-95.25 181.38,-95.25 181.38,-89.25 187.38,-83.25 193.38,-83.25 193.38,-83.25 223.38,-83.25 223.38,-83.25 229.38,-83.25 235.38,-89.25 235.38,-95.25 235.38,-95.25 235.38,-107.25 235.38,-107.25 235.38,-113.25 229.38,-119.25 223.38,-119.25"/>
<text text-anchor="middle" x="208.38" y="-97.55" font-family="Consolas" font-size="11.00">void</text>
</g>
<!-- autodockgpu&#45;&gt;void -->
<g id="edge4" class="edge">
<title>autodockgpu&#45;&gt;void</title>
<path fill="none" stroke="#3f4444" stroke-width="2" d="M164.34,-165.62C172.31,-160.87 180.12,-155.16 186.38,-148.5 190.97,-143.6 194.77,-137.57 197.85,-131.49"/>
<polygon fill="#3f4444" stroke="#3f4444" stroke-width="2" points="201.06,-132.61 201.88,-122.05 194.65,-129.79 201.06,-132.61"/>
<text text-anchor="middle" x="252.12" y="-139.95" font-family="Consolas" font-size="9.00">list[IsomerCollection]</text>
</g>
<!-- logresult -->
<g id="node6" class="node">
<title>logresult</title>
<path fill="#666666" fill-opacity="0.133333" stroke="#830051" stroke-width="2" d="M64.75,-36C64.75,-36 12,-36 12,-36 6,-36 0,-30 0,-24 0,-24 0,-12 0,-12 0,-6 6,0 12,0 12,0 64.75,0 64.75,0 70.75,0 76.75,-6 76.75,-12 76.75,-12 76.75,-24 76.75,-24 76.75,-30 70.75,-36 64.75,-36"/>
<text text-anchor="middle" x="38.38" y="-14.3" font-family="Consolas" font-size="11.00">logresult</text>
</g>
<!-- combine&#45;&gt;logresult -->
<g id="edge6" class="edge">
<title>combine&#45;&gt;logresult</title>
<path fill="none" stroke="#3f4444" stroke-width="2" d="M38.38,-82.62C38.38,-73 38.38,-60.81 38.38,-49.68"/>
<polygon fill="#3f4444" stroke="#3f4444" stroke-width="2" points="41.88,-49.88 38.38,-39.88 34.88,-49.88 41.88,-49.88"/>
<text text-anchor="middle" x="56.75" y="-56.7" font-family="Consolas" font-size="9.00">list[T]</text>
</g>
</g>
</svg>
